<svg width="434" height="106" viewBox="0 0 434 106" fill="none" xmlns="http://www.w3.org/2000/svg">
<g clip-path="url(#clip0)">
<g clip-path="url(#clip1)">
<path d="M431.321 48.364V40.7938H421.92V29.025L421.604 29.1225L412.774 31.8241L412.6 31.877V40.7942H398.663V35.8266C398.663 33.5134 399.18 31.7433 400.2 30.5628C401.212 29.3965 402.66 28.8035 404.507 28.8035C405.834 28.8035 407.209 29.1162 408.592 29.7329L408.939 29.8878V21.9154L408.776 21.8554C407.485 21.3916 405.73 21.158 403.554 21.158C400.812 21.158 398.321 21.7547 396.148 22.9372C393.974 24.1215 392.264 25.8121 391.066 27.9616C389.872 30.1085 389.266 32.5882 389.266 35.3323V40.7938H382.72V48.364H389.266V80.2558H398.663V48.364H412.6V68.6307C412.6 76.9775 416.537 81.2073 424.302 81.2073C425.577 81.2073 426.92 81.0578 428.292 80.7651C429.687 80.4645 430.638 80.1642 431.198 79.8436L431.321 79.7703V72.1302L430.939 72.3829C430.429 72.7227 429.794 73.0005 429.049 73.207C428.302 73.4173 427.677 73.5226 427.193 73.5226C425.374 73.5226 424.028 73.0325 423.194 72.0652C422.349 71.0892 421.921 69.3823 421.921 66.9947V48.364H431.321ZM361.735 73.5239C358.325 73.5239 355.636 72.3929 353.741 70.1652C351.834 67.9262 350.868 64.734 350.868 60.6783C350.868 56.4939 351.834 53.2188 353.741 50.9403C355.638 48.6767 358.301 47.5279 361.659 47.5279C364.917 47.5279 367.511 48.6251 369.369 50.7908C371.236 52.9678 372.184 56.2165 372.184 60.4497C372.184 64.7349 371.293 68.0265 369.536 70.2285C367.79 72.4137 365.166 73.5239 361.735 73.5239ZM362.153 39.8432C355.646 39.8432 350.478 41.7499 346.792 45.5104C343.11 49.2714 341.243 54.476 341.243 60.981C341.243 67.1596 343.065 72.1293 346.66 75.75C350.256 79.3718 355.148 81.2065 361.202 81.2065C367.509 81.2065 372.575 79.2731 376.258 75.4606C379.941 71.6521 381.807 66.4967 381.807 60.1436C381.807 53.8684 380.056 48.8616 376.601 45.2652C373.145 41.667 368.283 39.8432 362.153 39.8432ZM326.092 39.8432C321.666 39.8432 318.004 40.9754 315.207 43.2077C312.393 45.4534 310.966 48.3986 310.966 51.9626C310.966 53.8151 311.274 55.4608 311.88 56.8565C312.49 58.2569 313.434 59.4899 314.688 60.5246C315.933 61.5511 317.854 62.6262 320.4 63.7201C322.54 64.6008 324.136 65.3457 325.15 65.9329C326.141 66.5083 326.845 67.0867 327.242 67.6501C327.628 68.2014 327.824 68.9559 327.824 69.887C327.824 72.5382 325.838 73.8283 321.753 73.8283C320.238 73.8283 318.509 73.5118 316.616 72.888C314.736 72.2737 312.962 71.374 311.355 70.2206L310.965 69.9407V78.9879L311.108 79.0545C312.438 79.6683 314.114 80.1859 316.09 80.5931C318.062 81.0008 319.854 81.2082 321.41 81.2082C326.213 81.2082 330.081 80.0705 332.904 77.8249C335.744 75.5638 337.184 72.5491 337.184 68.8618C337.184 66.2019 336.409 63.9208 334.881 62.0811C333.364 60.2565 330.731 58.5813 327.059 57.1006C324.134 55.9263 322.259 54.9515 321.486 54.2032C320.741 53.4804 320.362 52.4581 320.362 51.1635C320.362 50.0159 320.829 49.0965 321.788 48.3519C322.755 47.6037 324.1 47.2231 325.787 47.2231C327.353 47.2231 328.955 47.4704 330.548 47.9551C332.14 48.4398 333.538 49.089 334.706 49.8831L335.089 50.1454V41.5633L334.942 41.5C333.865 41.0382 332.445 40.6431 330.721 40.3225C329.004 40.0039 327.446 39.8432 326.092 39.8432ZM286.468 73.5239C283.058 73.5239 280.368 72.3929 278.474 70.1652C276.567 67.9262 275.602 64.7349 275.602 60.6783C275.602 56.4939 276.568 53.2188 278.476 50.9403C280.371 48.6767 283.033 47.5279 286.393 47.5279C289.65 47.5279 292.244 48.6251 294.102 50.7908C295.97 52.9678 296.917 56.2165 296.917 60.4497C296.917 64.7349 296.026 68.0265 294.268 70.2285C292.523 72.4137 289.9 73.5239 286.468 73.5239ZM286.887 39.8432C280.378 39.8432 275.21 41.7499 271.527 45.5104C267.844 49.2714 265.975 54.476 265.975 60.981C265.975 67.1621 267.799 72.1293 271.395 75.75C274.99 79.3718 279.882 81.2065 285.935 81.2065C292.242 81.2065 297.309 79.2731 300.992 75.4606C304.675 71.6521 306.541 66.4967 306.541 60.1436C306.541 53.8684 304.79 48.8616 301.334 45.2652C297.877 41.667 293.016 39.8432 286.887 39.8432ZM251.711 47.6278V40.7938H242.429V80.255H251.711V60.0691C251.711 56.6367 252.489 53.8168 254.025 51.6869C255.541 49.5824 257.562 48.516 260.028 48.516C260.865 48.516 261.803 48.6538 262.82 48.9266C263.826 49.1977 264.554 49.492 264.984 49.8019L265.374 50.0846V40.7264L265.224 40.6618C264.359 40.2946 263.136 40.1093 261.589 40.1093C259.256 40.1093 257.169 40.8588 255.381 42.3345C253.812 43.6316 252.677 45.4101 251.81 47.6278H251.711ZM225.806 39.8432C221.547 39.8432 217.749 40.7563 214.518 42.5565C211.28 44.3607 208.776 46.9366 207.073 50.212C205.377 53.4795 204.516 57.2963 204.516 61.5527C204.516 65.2812 205.351 68.7028 207.001 71.7183C208.652 74.7389 210.989 77.102 213.947 78.741C216.901 80.3778 220.315 81.2077 224.095 81.2077C228.506 81.2077 232.273 80.3258 235.293 78.5865L235.414 78.5165V70.0123L235.024 70.2972C233.656 71.2936 232.128 72.0889 230.483 72.6619C228.842 73.2345 227.347 73.5239 226.035 73.5239C222.393 73.5239 219.469 72.3842 217.346 70.1373C215.219 67.8874 214.141 64.7282 214.141 60.7528C214.141 56.7524 215.266 53.512 217.482 51.121C219.692 48.7371 222.621 47.5279 226.188 47.5279C229.239 47.5279 232.212 48.561 235.025 50.6013L235.414 50.8841V41.9235L235.289 41.8527C234.23 41.2602 232.787 40.7709 230.994 40.3999C229.21 40.0297 227.464 39.8432 225.806 39.8432ZM198.123 40.7942H188.84V80.255H198.123V40.7942ZM193.577 23.9837C192.049 23.9837 190.716 24.5038 189.622 25.5343C188.522 26.5679 187.965 27.8691 187.965 29.4048C187.965 30.9163 188.516 32.1939 189.604 33.1999C190.686 34.203 192.023 34.7114 193.577 34.7114C195.131 34.7114 196.472 34.203 197.567 33.2016C198.669 32.1939 199.228 30.9168 199.228 29.4048C199.228 27.9228 198.684 26.6349 197.612 25.576C196.542 24.5192 195.183 23.9837 193.577 23.9837ZM170.416 37.8828V80.255H179.889V25.1916H166.778L150.113 66.0911L133.94 25.1916H120.295V80.2546H129.197V37.8786H129.503L146.581 80.255H153.299L170.111 37.8828H170.416Z" fill="#706D6E"/>
<path d="M44.5335 50.4576H0.866211V6.79028H44.5335V50.4576Z" fill="#F1511B"/>
<path d="M92.7467 50.4588H49.0803V6.7915H92.7467V50.4588Z" fill="#80CC28"/>
<path d="M44.5322 98.6893H0.866211V55.0225H44.5322V98.6893Z" fill="#00ADEF"/>
<path d="M92.7467 98.6893H49.0803V55.0225H92.7467V98.6893Z" fill="#FBBC09"/>
</g>
</g>
<defs>
<clipPath id="clip0">
<rect width="432.768" height="104.914" fill="white" transform="translate(0.865234 0.596436)"/>
</clipPath>
<clipPath id="clip1">
<rect width="430.454" height="91.945" fill="white" transform="translate(0.865723 6.76782)"/>
</clipPath>
</defs>
</svg>
