<svg width="281" height="68" viewBox="0 0 281 68" fill="none" xmlns="http://www.w3.org/2000/svg">
<path fill-rule="evenodd" clip-rule="evenodd" d="M42.7708 18.9546C42.7708 26.11 36.9666 31.9107 29.8064 31.9107C22.646 31.9107 16.8418 26.11 16.8418 18.9546C16.8418 11.8007 22.646 6 29.8064 6C36.9666 6 42.7708 11.8007 42.7708 18.9546ZM12.9647 35.1498C5.80453 35.1498 0 40.9489 0 48.1042C0 55.259 5.80453 61.0591 12.9647 61.0591C20.1251 61.0591 25.9299 55.259 25.9299 48.1042C25.9299 40.9489 20.1251 35.1498 12.9647 35.1498ZM46.6479 35.1487C39.4878 35.1487 33.6832 40.9489 33.6832 48.1042C33.6832 55.259 39.4878 61.0591 46.6479 61.0591C53.808 61.0591 59.6126 55.259 59.6126 48.1042C59.6126 40.9489 53.808 35.1487 46.6479 35.1487Z" fill="url(#paint0_radial)"/>
<path fill-rule="evenodd" clip-rule="evenodd" d="M105.233 47.9506C105.402 49.8725 106.94 52.3188 109.605 52.3188H111.165C111.769 52.3188 112.265 51.8236 112.265 51.2191V16.9479H112.258C112.226 16.3706 111.749 15.9082 111.165 15.9082H106.332C105.748 15.9082 105.271 16.3706 105.238 16.9479H105.233V19.7327C102.272 16.086 97.6041 14.5724 92.9231 14.5724C82.2834 14.5724 73.6582 23.1977 73.6582 33.8382C73.6582 44.4794 82.2834 53.105 92.9231 53.105V53.1059C97.6041 53.1059 102.705 51.2898 105.232 47.9462L105.233 47.9506ZM92.9421 46.3621C86.1753 46.3621 80.6894 40.7555 80.6894 33.8382C80.6894 26.9222 86.1753 21.3153 92.9421 21.3153C99.7087 21.3153 105.194 26.9222 105.194 33.8382C105.194 40.7555 99.7087 46.3621 92.9421 46.3621Z" fill="#273347"/>
<path fill-rule="evenodd" clip-rule="evenodd" d="M183.959 47.9507C184.128 49.8726 185.667 52.3189 188.332 52.3189H189.891C190.496 52.3189 190.991 51.8237 190.991 51.2192V16.9481H190.984C190.953 16.3707 190.475 15.9083 189.891 15.9083H185.059C184.475 15.9083 183.997 16.3707 183.965 16.9481H183.959V19.7328C180.998 16.0861 176.33 14.5725 171.649 14.5725C161.01 14.5725 152.385 23.1978 152.385 33.8384C152.385 44.4795 161.01 53.1051 171.649 53.1051V53.106C176.33 53.106 181.432 51.29 183.958 47.9463L183.959 47.9507ZM171.668 46.3622C164.902 46.3622 159.416 40.7556 159.416 33.8384C159.416 26.9223 164.902 21.3154 171.668 21.3154C178.435 21.3154 183.92 26.9223 183.92 33.8384C183.92 40.7556 178.435 46.3622 171.668 46.3622Z" fill="#273347"/>
<path fill-rule="evenodd" clip-rule="evenodd" d="M271.969 47.9507C272.138 49.8726 273.676 52.3189 276.342 52.3189H277.901C278.506 52.3189 279.001 51.8237 279.001 51.2192V16.9481H278.994C278.963 16.3707 278.485 15.9083 277.901 15.9083H273.069C272.484 15.9083 272.007 16.3707 271.975 16.9481H271.969V19.7328C269.008 16.0861 264.341 14.5725 259.66 14.5725C249.019 14.5725 240.395 23.1978 240.395 33.8384C240.395 44.4795 249.019 53.1051 259.66 53.1051V53.106C264.341 53.106 269.442 51.29 271.968 47.9463L271.969 47.9507ZM259.678 46.3622C252.912 46.3622 247.425 40.7556 247.425 33.8384C247.425 26.9223 252.912 21.3154 259.678 21.3154C266.445 21.3154 271.931 26.9223 271.931 33.8384C271.931 40.7556 266.445 46.3622 259.678 46.3622Z" fill="#273347"/>
<path fill-rule="evenodd" clip-rule="evenodd" d="M234.284 49.1291L234.281 31.3953H234.282C234.282 21.3988 227.976 14.655 217.919 14.655C213.119 14.655 209.184 17.431 207.794 19.8156C207.493 17.951 206.503 15.9911 203.434 15.9911H201.869C201.264 15.9911 200.77 16.4866 200.77 17.0911V48.0364V48.0411V51.3652H200.776C200.807 51.9417 201.285 52.4047 201.87 52.4047H206.702C206.776 52.4047 206.848 52.3959 206.918 52.3821C206.95 52.376 206.98 52.3634 207.011 52.3546C207.047 52.3435 207.085 52.335 207.119 52.321C207.162 52.3032 207.201 52.2792 207.241 52.257C207.26 52.245 207.281 52.2365 207.3 52.2239C207.348 52.1929 207.392 52.1555 207.435 52.1171C207.442 52.1101 207.45 52.1054 207.457 52.099C207.505 52.0525 207.549 52.0013 207.588 51.9481L207.588 51.9472C207.71 51.7811 207.783 51.581 207.795 51.3652H207.801V31.1204C207.801 25.7515 212.154 21.3988 217.523 21.3988C222.892 21.3988 227.245 25.7515 227.245 31.1204L227.249 48.0423L227.25 48.0364C227.25 48.0513 227.253 48.0668 227.253 48.0829V51.3652H227.259C227.291 51.9417 227.768 52.4047 228.353 52.4047H233.185C233.259 52.4047 233.332 52.3959 233.401 52.3821C233.43 52.3769 233.456 52.3655 233.484 52.3576C233.524 52.3462 233.565 52.3362 233.603 52.321C233.642 52.3046 233.678 52.2818 233.716 52.2607C233.738 52.2479 233.762 52.2385 233.784 52.2239C233.829 52.1947 233.87 52.1593 233.91 52.1242C233.92 52.1148 233.931 52.1078 233.941 52.0981C233.987 52.054 234.028 52.0063 234.065 51.9563C234.068 51.9525 234.071 51.9496 234.074 51.9457C234.193 51.7811 234.265 51.5825 234.278 51.3681C234.278 51.3666 234.279 51.3652 234.279 51.3652H234.285V49.1297L234.284 49.1291Z" fill="#273347"/>
<path fill-rule="evenodd" clip-rule="evenodd" d="M123.808 43.0423C127.034 45.2772 130.555 46.3626 133.939 46.3626C137.163 46.3626 140.495 44.6913 140.495 41.7826C140.495 37.899 133.233 37.2947 128.671 35.744C124.107 34.1933 120.177 30.9876 120.177 25.7964C120.177 17.8528 127.255 14.572 133.861 14.572C138.046 14.572 142.365 15.9522 145.165 17.9294C146.129 18.6601 145.542 19.4989 145.542 19.4989L142.869 23.3161C142.569 23.746 142.043 24.1175 141.289 23.6522C140.535 23.1871 137.891 21.3152 133.861 21.3152C129.83 21.3152 127.402 23.1766 127.402 25.4837C127.402 28.2503 130.558 29.1204 134.254 30.0634C140.694 31.7996 147.72 33.8864 147.72 41.7826C147.72 48.7814 141.174 53.1067 133.939 53.1067C128.456 53.1067 123.788 51.5436 119.873 48.6706C119.057 47.8543 119.627 47.0964 119.627 47.0964L122.287 43.2985C122.828 42.5884 123.51 42.8361 123.808 43.0423Z" fill="#273347"/>
<defs>
<radialGradient id="paint0_radial" cx="0" cy="0" r="1" gradientUnits="userSpaceOnUse" gradientTransform="translate(29.9925 38.9164) rotate(37.3039) scale(36.8291 35.7726)">
<stop stop-color="#FFB900"/>
<stop offset="0.74709" stop-color="#FA5C86"/>
<stop offset="1" stop-color="#F95353"/>
</radialGradient>
</defs>
</svg>
