<svg width="281" height="68" viewBox="0 0 281 68" fill="none" xmlns="http://www.w3.org/2000/svg">
<path d="M33.9119 68C52.6409 68 67.8238 52.7777 67.8238 34C67.8238 15.2223 52.6409 0 33.9119 0C15.1829 0 0 15.2223 0 34C0 52.7777 15.1829 68 33.9119 68Z" fill="#FF8A00"/>
<path d="M37.0913 24.9684C37.0913 22.6212 35.1934 20.7184 32.8523 20.7184C30.5111 20.7184 28.6133 22.6212 28.6133 24.9684V48.3434C28.6133 50.6906 30.5111 52.5934 32.8523 52.5934C35.1934 52.5934 37.0913 50.6906 37.0913 48.3434V24.9684Z" fill="#FDF9F5"/>
<path d="M23.3139 32.9379C23.3139 30.5907 21.4161 28.6879 19.0749 28.6879C16.7338 28.6879 14.8359 30.5907 14.8359 32.9379V48.3442C14.8359 50.6914 16.7338 52.5942 19.0749 52.5942C21.4161 52.5942 23.3139 50.6914 23.3139 48.3442V32.9379Z" fill="#FDF9F5"/>
<path d="M50.8674 17.5309C50.8674 15.1837 48.9695 13.2809 46.6284 13.2809C44.2873 13.2809 42.3894 15.1837 42.3894 17.5309V48.3436C42.3894 50.6908 44.2873 52.5936 46.6284 52.5936C48.9695 52.5936 50.8674 50.6908 50.8674 48.3436V17.5309Z" fill="#FDF9F5"/>
<path fill-rule="evenodd" clip-rule="evenodd" d="M85.599 19.6245C84.976 19.6265 84.359 19.5028 83.7847 19.2607C83.2215 19.0271 82.7096 18.6849 82.278 18.2534C81.8521 17.8275 81.5109 17.3243 81.2728 16.7705C81.031 16.2109 80.9099 15.595 80.9099 14.9238C80.9099 14.252 81.031 13.6366 81.2733 13.0766C81.5111 12.5229 81.8519 12.0196 82.2775 11.5937C82.7092 11.1622 83.2213 10.8199 83.7847 10.5864C84.3589 10.3442 84.976 10.2203 85.599 10.2221C86.9017 10.2221 88.0179 10.6796 88.9485 11.5937C89.8786 12.5078 90.3437 13.6177 90.3437 14.9238C90.3437 16.2294 89.8786 17.3392 88.9485 18.2534C88.0183 19.1675 86.9017 19.6245 85.599 19.6245ZM81.9704 51.0211V23.5986H89.2837V51.0221H81.9714L81.9704 51.0211ZM113.054 51.637V47.7192C112.385 48.8762 111.342 49.8646 109.928 50.6855C108.514 51.5063 106.765 51.9168 104.681 51.9168C102.932 51.9168 101.267 51.553 99.685 50.8254C98.107 50.1003 96.6851 49.0738 95.4988 47.8032C94.2891 46.5161 93.3309 44.9774 92.6241 43.186C91.9168 41.3952 91.5631 39.4363 91.5631 37.3099C91.5631 35.1829 91.9168 33.2245 92.6241 31.4337C93.3314 29.6424 94.2891 28.1036 95.4988 26.8165C96.6851 25.546 98.107 24.5195 99.685 23.7944C101.251 23.0701 102.956 22.6976 104.681 22.703C106.765 22.703 108.514 23.1134 109.928 23.9343C111.342 24.7551 112.384 25.7436 113.054 26.9L113.057 23.5982H120.366V63.11H113.054V51.6375V51.637ZM106.188 45.1449C107.156 45.1449 108.077 44.9676 108.951 44.6136C109.82 44.2631 110.608 43.7392 111.268 43.0738C111.938 42.4026 112.478 41.5817 112.887 40.6118C113.296 39.6418 113.501 38.5412 113.501 37.3099C113.501 36.0786 113.296 34.978 112.887 34.008C112.478 33.038 111.937 32.2172 111.268 31.5454C110.608 30.8802 109.82 30.3565 108.951 30.0062C108.073 29.6512 107.135 29.4707 106.188 29.4748C105.221 29.4748 104.299 29.6613 103.425 30.0344C102.559 30.4016 101.772 30.9337 101.108 31.6013C100.439 32.273 99.8991 33.0939 99.4898 34.0638C99.0804 35.0338 98.876 36.116 98.876 37.3099C98.876 38.5038 99.0804 39.5859 99.4898 40.5559C99.8991 41.5259 100.439 42.3467 101.108 43.0185C101.772 43.686 102.559 44.2181 103.425 44.5854C104.299 44.9583 105.239 45.1487 106.188 45.1449ZM146.473 22.703C148.595 22.703 150.539 23.0668 152.307 23.7944C154.075 24.5215 155.6 25.5289 156.884 26.8165C158.168 28.1036 159.173 29.6424 159.899 31.4337C160.624 33.2245 160.987 35.1834 160.987 37.3099C160.987 39.4363 160.624 41.3952 159.899 43.186C159.173 44.9774 158.168 46.5161 156.884 47.8032C155.6 49.0904 154.074 50.0978 152.307 50.8254C150.539 51.553 148.595 51.9168 146.474 51.9168C144.352 51.9168 142.408 51.553 140.64 50.8254C138.872 50.0978 137.347 49.0904 136.063 47.8032C134.779 46.5161 133.774 44.9774 133.049 43.186C132.323 41.3952 131.96 39.4363 131.96 37.3099C131.96 35.1829 132.323 33.2245 133.049 31.4337C133.774 29.6424 134.779 28.1036 136.063 26.8165C137.347 25.5294 138.873 24.5215 140.64 23.7944C142.408 23.0668 144.352 22.703 146.473 22.703ZM146.473 45.1449C147.403 45.1449 148.306 44.9676 149.181 44.6136C150.049 44.2631 150.837 43.7392 151.498 43.0738C152.167 42.4026 152.698 41.5817 153.088 40.6118C153.479 39.6418 153.674 38.5412 153.674 37.3099C153.674 36.0786 153.479 34.978 153.088 34.008C152.698 33.038 152.168 32.2172 151.498 31.5454C150.837 30.8802 150.049 30.3565 149.181 30.0062C148.321 29.6548 147.402 29.4743 146.473 29.4748C145.506 29.4748 144.594 29.6521 143.739 30.0062C142.881 30.3616 142.103 30.8849 141.449 31.5454C140.78 32.2172 140.249 33.038 139.859 34.008C139.468 34.978 139.273 36.0786 139.273 37.3099C139.273 38.5412 139.468 39.6413 139.859 40.6118C140.249 41.5817 140.779 42.4026 141.449 43.0743C142.103 43.7349 142.881 44.2582 143.739 44.6136C144.594 44.9681 145.506 45.1449 146.473 45.1449ZM162.597 23.5986H169.912V26.9C170.579 25.744 171.621 24.7551 173.036 23.9343C174.45 23.1134 176.199 22.703 178.283 22.703C180.032 22.703 181.697 23.0668 183.278 23.7944C184.857 24.5194 186.279 25.5459 187.465 26.8165C188.675 28.1036 189.633 29.6424 190.34 31.4337C191.047 33.2245 191.401 35.1834 191.401 37.3099C191.401 39.4363 191.047 41.3952 190.34 43.186C189.632 44.9774 188.675 46.5161 187.465 47.8032C186.279 49.0738 184.857 50.1003 183.278 50.8254C181.712 51.5495 180.007 51.922 178.283 51.9168C176.199 51.9168 174.45 51.5063 173.036 50.6855C171.621 49.8646 170.579 48.8762 169.91 47.7192V63.1096H162.596V23.5986H162.597ZM176.776 45.1449C177.743 45.1449 178.664 44.9584 179.539 44.5854C180.405 44.2181 181.191 43.686 181.855 43.0185C182.525 42.3467 183.065 41.5259 183.474 40.5559C183.883 39.5859 184.088 38.5038 184.088 37.3099C184.088 36.116 183.883 35.0338 183.474 34.0638C183.065 33.0939 182.525 32.273 181.855 31.6013C181.191 30.9338 180.405 30.4017 179.539 30.0344C178.665 29.6615 177.725 29.4711 176.776 29.4748C175.808 29.4748 174.887 29.6521 174.012 30.0062C173.144 30.3566 172.356 30.8802 171.696 31.5454C171.026 32.2172 170.486 33.038 170.077 34.008C169.668 34.978 169.463 36.0786 169.463 37.3099C169.463 38.5412 169.668 39.6413 170.077 40.6118C170.486 41.5817 171.026 42.4026 171.696 43.0743C172.356 43.7395 173.144 44.2632 174.012 44.6136C174.89 44.9686 175.829 45.1491 176.776 45.1449ZM195.411 29.8663H190.61V23.5982H195.411V15.2036H202.723V23.5982H209.422V29.8663H202.723V40.5C202.723 41.1344 202.788 41.7216 202.919 42.2632C203.049 42.8038 203.3 43.2608 203.672 43.6339C204.193 44.2313 204.938 44.5295 205.905 44.5295C206.538 44.5295 207.04 44.464 207.412 44.3333C207.787 44.2017 208.143 44.0231 208.473 43.8019L210.538 50.2376C209.658 50.6564 208.73 50.9666 207.775 51.1615C206.789 51.3664 205.7 51.4689 204.51 51.4689C203.133 51.4689 201.896 51.2547 200.798 50.8254C199.7 50.3965 198.779 49.8088 198.034 49.0622C196.286 47.3836 195.411 44.9958 195.411 41.8989V29.8663ZM216.559 19.6245C215.936 19.6265 215.319 19.5028 214.744 19.2607C214.181 19.0272 213.669 18.6849 213.237 18.2534C212.811 17.8275 212.47 17.3242 212.232 16.7705C211.99 16.2109 211.869 15.595 211.869 14.9238C211.869 14.252 211.99 13.6366 212.232 13.0766C212.47 12.5228 212.811 12.0196 213.237 11.5937C213.669 11.1622 214.181 10.8199 214.744 10.5864C215.318 10.3441 215.935 10.2202 216.559 10.2221C217.861 10.2221 218.977 10.6796 219.908 11.5937C220.838 12.5078 221.303 13.6177 221.303 14.9238C221.303 16.2294 220.838 17.3392 219.908 18.2534C218.977 19.1675 217.861 19.6245 216.559 19.6245ZM212.93 51.0211V23.5986H220.242V51.0221H212.93V51.0211ZM237.036 22.703C239.157 22.703 241.102 23.0668 242.869 23.7944C244.637 24.5215 246.163 25.5289 247.446 26.8165C248.73 28.1036 249.735 29.6424 250.461 31.4337C251.186 33.2245 251.549 35.1834 251.549 37.3099C251.549 39.4363 251.186 41.3952 250.461 43.186C249.735 44.9774 248.73 46.5161 247.446 47.8032C246.163 49.0904 244.637 50.0978 242.869 50.8254C241.101 51.553 239.157 51.9168 237.036 51.9168C234.915 51.9168 232.97 51.553 231.203 50.8254C229.435 50.0978 227.909 49.0904 226.626 47.8032C225.342 46.5161 224.337 44.9774 223.611 43.186C222.886 41.3952 222.523 39.4363 222.523 37.3099C222.523 35.1829 222.886 33.2245 223.611 31.4337C224.337 29.6424 225.342 28.1036 226.626 26.8165C227.909 25.5294 229.435 24.5215 231.203 23.7944C232.97 23.0668 234.915 22.703 237.036 22.703H237.036ZM237.036 45.1449C237.966 45.1449 238.869 44.9676 239.743 44.6136C240.611 44.2631 241.4 43.7392 242.06 43.0738C242.73 42.4026 243.26 41.5817 243.651 40.6118C244.041 39.6418 244.237 38.5412 244.237 37.3099C244.237 36.0786 244.041 34.978 243.651 34.008C243.26 33.038 242.73 32.2172 242.06 31.5454C241.4 30.8802 240.611 30.3565 239.743 30.0062C238.884 29.6548 237.964 29.4743 237.036 29.4748C236.069 29.4748 235.156 29.6521 234.301 30.0062C233.443 30.3616 232.665 30.8849 232.012 31.5454C231.342 32.2172 230.812 33.038 230.421 34.008C230.03 34.978 229.835 36.0786 229.835 37.3099C229.835 38.5412 230.03 39.6413 230.421 40.6118C230.812 41.5817 231.342 42.4026 232.012 43.0743C232.665 43.7348 233.443 44.2581 234.301 44.6136C235.157 44.9681 236.069 45.1449 237.036 45.1449ZM259.97 27.1803H260.416C261.272 25.7994 262.426 24.708 263.877 23.9061C265.328 23.1037 266.985 22.703 268.845 22.703C270.557 22.703 272.064 22.9828 273.366 23.5423C274.669 24.1018 275.739 24.895 276.576 25.9208C277.413 26.9467 278.046 28.178 278.474 29.6147C278.902 31.051 279.116 32.646 279.116 34.3995V51.0216H271.803V35.2951C271.803 33.3178 271.366 31.8534 270.492 30.9018C269.617 29.9503 268.343 29.4748 266.668 29.4748C265.663 29.4748 264.779 29.689 264.017 30.1184C263.25 30.5509 262.584 31.1424 262.063 31.8534C261.523 32.581 261.114 33.4387 260.835 34.4276C260.556 35.4166 260.416 36.4706 260.416 37.5896V51.0216H253.103V23.5982H259.97V27.1803Z" fill="#22221F"/>
</svg>
