<svg width="130" height="28" viewBox="0 0 130 28" fill="none" xmlns="http://www.w3.org/2000/svg">
<g clip-path="url(#clip0)">
<path d="M7.78171 26.7256C7.78171 26.7256 7.67857 27.529 6.96841 27.8521C6.25824 28.1752 5.81775 27.9059 5.44386 27.6227L1.61155 24.7592C1.61155 24.7592 0.0816292 23.273 0.0246871 22.1821C-0.0311807 21.0912 0.0246871 7.24409 0.0246871 7.24409C0.0657476 6.51982 0.337652 5.82788 0.80039 5.27009C1.58576 4.30517 3.50675 2.8244 3.50675 2.8244L6.14006 0.747015C6.14006 0.747015 7.29072 -0.0574471 7.76022 0.00932215" fill="#22221F"/>
<path d="M7.75706 21.3769L18.7802 14.6192C18.7802 14.6192 20.4938 13.6694 20.4143 11.2721C20.3359 8.87383 20.6077 7.48783 20.0447 6.46583L14.1002 10.0154L7.75706 13.9461V21.3769Z" fill="#22221F"/>
<path d="M7.74839 6.74578L14.1001 10.0153L20.0436 6.46686C19.8619 6.151 19.6357 5.86302 19.3721 5.61178C18.9585 5.23055 18.1215 4.80839 17.767 4.61778C17.4124 4.42609 9.28583 0.440394 9.28583 0.440394C9.28583 0.440394 8.42525 -0.0377594 7.74839 -6.7085e-05V6.74578Z" fill="#22221F"/>
<path fill-rule="evenodd" clip-rule="evenodd" d="M36.8566 6.5994C36.0336 5.78093 34.7863 5.37063 33.1113 5.37063H27.777C27.5611 5.37063 27.3473 5.41047 27.1474 5.48909C26.949 5.56743 26.7676 5.68375 26.6135 5.83155C26.4615 5.97678 26.3403 6.15109 26.2568 6.34417C26.1751 6.53693 26.1332 6.74263 26.1332 6.95047V20.468H29.3757V15.0672H33.3477C34.9002 15.0672 36.0874 14.658 36.9093 13.8385C37.7312 12.9586 38.1426 11.7589 38.1426 10.2394C38.1362 8.63047 37.7075 7.41678 36.8566 6.5994ZM34.3447 11.8192C33.9794 12.1692 33.3702 12.3448 32.515 12.3448H29.3671V8.00155H32.7009C33.4014 8.00155 33.9644 8.17601 34.3898 8.52709C34.7551 8.93632 34.9378 9.47801 34.9378 10.1511C34.9378 10.9416 34.7401 11.4972 34.3447 11.8203V11.8192ZM43.4651 8.52601C41.73 8.52601 40.3752 9.06771 39.4018 10.15C38.4574 11.2054 37.9858 12.6679 37.9858 14.5406C37.9858 16.5006 38.4725 18.0083 39.4469 19.0616C40.4203 20.1385 41.7751 20.6769 43.5102 20.6769C44.9413 20.6769 46.1285 20.342 47.0729 19.6689C48.0162 19.026 48.6544 18.0891 48.9907 16.8603H46.7033C46.4057 16.8419 46.1099 16.9188 45.8588 17.08C45.716 17.1655 45.5976 17.2864 45.515 17.4311L45.2679 17.6788C45.1962 17.7465 45.1097 17.7966 45.0155 17.8252C44.6076 18.0401 44.1513 18.1458 43.6907 18.1322C42.9 18.1322 42.3059 17.8974 41.9105 17.43C41.484 16.9906 41.2551 16.3176 41.2261 15.4108H49.126C49.1631 15.313 49.1789 15.2083 49.1722 15.1039V14.6289C49.1722 12.698 48.6845 11.1903 47.7111 10.1069C46.7065 9.05371 45.2916 8.52601 43.4641 8.52601H43.4651ZM41.2272 13.4422C41.2573 12.6819 41.485 12.0949 41.9116 11.6825C42.1275 11.4779 42.3843 11.3174 42.6679 11.2119C42.9515 11.106 43.253 11.0569 43.5554 11.0676C44.2859 11.0676 44.8489 11.2722 45.2443 11.6814C45.6096 12.0626 45.8212 12.6496 45.8825 13.4422H41.2272ZM56.0676 8.78986C55.2593 8.78706 54.4541 8.88877 53.6717 9.09247C52.9374 9.27688 52.2466 9.60479 51.639 10.0574C51.0116 10.5489 50.517 11.1902 50.2004 11.9226C49.8502 12.698 49.674 13.6565 49.674 14.798V20.4594H52.8756V14.4469C52.8756 13.5671 53.0883 12.9231 53.5138 12.5149C53.9403 12.1079 54.5957 11.9043 55.4799 11.9065H56.5307V8.78986H56.0676ZM62.1454 9.49309H60.1825V8.70155C60.1825 8.35047 60.2577 8.1157 60.4113 7.9994C60.594 7.88309 60.8991 7.82386 61.3256 7.82278H62.1475V5.41047C61.8904 5.37713 61.6311 5.36273 61.3718 5.3674C61.1298 5.33415 60.8855 5.31903 60.6412 5.32217C59.3928 5.32217 58.4946 5.57094 57.9478 6.06847C57.3698 6.59617 57.0807 7.38555 57.0807 8.43878V20.4637H60.1857V11.6416H60.6423C60.8429 11.6396 61.0412 11.5994 61.2268 11.5231C61.4116 11.4466 61.5792 11.3357 61.7199 11.1968C61.8596 11.0589 61.9702 10.8952 62.0433 10.7143C62.1185 10.5345 62.154 10.3428 62.1507 10.1489L62.1454 9.49201V9.49309ZM69.7197 8.87924C68.7152 8.52709 67.5893 8.43232 66.3398 8.59278C65.1638 8.71697 64.0747 9.2714 63.281 10.15C62.7752 10.715 62.4096 11.3917 62.2141 12.1251C61.9883 12.8946 61.8726 13.6923 61.8703 14.4943C61.8677 15.4388 62.0068 16.3784 62.2829 17.2814C62.5173 18.1128 62.9952 18.8544 63.6549 19.4105C64.264 19.9382 65.0774 20.3108 66.0937 20.5305C67.0967 20.7499 68.1375 20.727 69.1299 20.4637C70.2548 20.23 71.1841 19.6302 71.9147 18.6652C72.2768 18.1376 72.554 17.5603 72.7355 16.9529C72.9644 16.1668 73.0718 15.3548 73.0557 14.5396C73.0557 13.2516 72.7979 12.1272 72.28 11.1666C71.7541 10.1005 70.8364 9.28024 69.7197 8.87817V8.87924ZM69.3502 17.1285C68.9849 17.6562 68.5669 17.9846 68.0942 18.116C67.6371 18.2485 67.1499 18.2334 66.7018 18.0729C66.2452 17.9114 65.925 17.7165 65.7424 17.4849C65.2869 16.9583 65.0279 16.03 64.9667 14.6989C64.9055 13.3689 65.1988 12.3642 65.8445 11.6868C66.1324 11.4434 66.4773 11.27 66.849 11.1828C67.2979 11.0504 67.7764 11.0579 68.221 11.2043C68.6776 11.3508 69.0805 11.6868 69.4318 12.2134C69.7821 12.7389 69.9572 13.5294 69.9572 14.5826C69.9207 15.7543 69.7187 16.6029 69.3502 17.1285ZM89.9009 9.53294C88.7843 8.86305 87.5053 8.51396 86.204 8.52386C85.5491 8.55126 84.8988 8.6469 84.2636 8.80924C83.6698 8.95569 83.1162 9.23351 82.6435 9.62232C82.1104 9.19006 81.4838 8.88876 80.8138 8.74247C80.1389 8.59531 79.4502 8.5213 78.7596 8.5217C77.4896 8.56827 76.2537 8.94655 75.1744 9.61909C74.0936 10.2922 73.5531 11.6243 73.5542 13.6145V20.4605H76.7559V13.0039C76.7559 12.3017 76.9675 11.7891 77.3941 11.4671C77.8138 11.1474 78.3281 10.9776 78.8552 10.9846C79.3924 10.9803 79.9156 11.1505 80.34 11.4671C80.7805 11.7902 81.0018 12.3017 81.0018 13.0039V20.4648H84.1519V13.0039C84.1519 12.3017 84.3722 11.7891 84.8137 11.4671C85.2392 11.1526 85.7613 10.9825 86.2964 10.9825C86.8336 10.9825 87.3557 11.1526 87.7812 11.4671C88.2217 11.7902 88.443 12.3017 88.443 13.0039V18.9722C88.4337 19.1709 88.4674 19.3693 88.5418 19.5537C88.617 19.74 88.7309 19.908 88.877 20.0491C89.0231 20.1891 89.1983 20.2989 89.3906 20.37C89.584 20.4422 89.7892 20.4745 89.9955 20.4648H91.5931V13.6177C91.5931 11.5716 91.0279 10.2092 89.9009 9.53294ZM100.901 9.36063C100.048 8.80601 98.771 8.52709 97.066 8.52601C95.5425 8.52601 94.3693 8.86309 93.5506 9.53509C93.2001 9.80454 92.9066 10.1411 92.6871 10.5253C92.4676 10.9095 92.3266 11.3336 92.2721 11.7729H95.3308C95.3985 11.6211 95.4984 11.4832 95.6241 11.3702C95.7498 11.2571 95.8981 11.1699 96.0603 11.1149C96.4285 10.9927 96.8146 10.9334 97.2024 10.9394C97.6429 10.9491 98.0812 11.018 98.5024 11.1462C98.974 11.2776 99.2093 11.5629 99.2093 12.0023C99.2093 12.5892 98.54 12.9694 97.2002 13.1439C96.9551 13.1683 96.7113 13.2046 96.4697 13.2526C96.2904 13.2928 96.1076 13.3152 95.9239 13.3194C94.7711 13.4896 93.8202 13.8396 93.0703 14.3716C92.3204 14.9036 91.9476 15.7834 91.9508 17.0122C91.9508 18.3282 92.3623 19.2716 93.1842 19.8423C94.0244 20.4109 95.0332 20.7039 96.0603 20.678C96.6942 20.6726 97.326 20.636 97.9555 20.5682C98.6626 20.4989 99.3508 20.2999 99.9861 19.9812C100.631 19.6574 101.176 19.1642 101.563 18.5543C102.004 17.8974 102.224 16.982 102.224 15.8103V11.8192C102.242 11.3329 102.129 10.8506 101.899 10.4225C101.666 9.99171 101.323 9.62555 100.901 9.36063ZM99.2577 15.6822C99.2577 16.5006 99.0149 17.1446 98.5282 17.6131C98.0415 18.0816 97.3721 18.3152 96.5191 18.3152C96.0012 18.3152 95.6059 18.1989 95.3319 17.9652C95.1922 17.8252 95.0848 17.6605 95.0139 17.4796C94.943 17.2991 94.9112 17.1057 94.9204 16.912C94.9279 16.5674 95.0386 16.2325 95.2406 15.9471C95.4845 15.7134 95.8798 15.5228 96.4278 15.3763L97.4785 15.1566C98.09 15.0296 98.6863 14.8383 99.2577 14.5859V15.6811V15.6822ZM111.819 9.53294C110.702 8.86272 109.422 8.51362 108.12 8.52386C106.85 8.57015 105.614 8.94806 104.535 9.62017C103.454 10.2943 102.914 11.6254 102.915 13.6156V20.4616H106.117V13.0028C106.117 12.3006 106.328 11.788 106.755 11.466C107.175 11.1465 107.69 10.9771 108.217 10.9846C108.754 10.9814 109.277 11.1505 109.702 11.4671C110.135 11.7891 110.352 12.3006 110.352 13.0028V18.9711C110.344 19.1709 110.378 19.3701 110.453 19.5556C110.528 19.741 110.641 19.9085 110.785 20.0469C110.931 20.1869 111.106 20.2968 111.298 20.3689C111.491 20.4411 111.697 20.4734 111.903 20.4637H113.502V13.6166C113.506 11.5705 112.945 10.2082 111.819 9.53186V9.53294ZM117.408 17.4376V10.9416H117.728C117.93 10.9448 118.131 10.9092 118.319 10.8392C118.507 10.7671 118.679 10.6605 118.824 10.5248C118.975 10.3869 119.094 10.22 119.172 10.0348C119.252 9.84955 119.288 9.65032 119.282 9.45001V8.83401H117.408V6.86001C117.411 6.66196 117.371 6.46563 117.292 6.28405C117.214 6.10246 117.097 5.93977 116.951 5.80678C116.815 5.66804 116.653 5.55816 116.474 5.4837C116.292 5.40776 116.098 5.36825 115.901 5.3674H114.258V18.2722C114.258 19.6183 114.844 20.3356 116.015 20.4239C117.101 20.51 118.193 20.5251 119.28 20.4669V18.186H118.323C117.713 18.186 117.408 17.9362 117.408 17.4376ZM128.535 10.1037C127.531 9.05155 126.115 8.52494 124.289 8.52494C122.553 8.52494 121.199 9.06663 120.225 10.1489C119.284 11.2043 118.814 12.6689 118.814 14.5406C118.814 16.5006 119.301 18.0083 120.276 19.0616C121.249 20.1385 122.603 20.6769 124.339 20.6769C125.769 20.6769 126.957 20.342 127.901 19.6689C128.844 19.026 129.483 18.0891 129.818 16.8603H127.532C127.235 16.8419 126.939 16.9188 126.688 17.08C126.545 17.1653 126.427 17.2863 126.345 17.4311L126.094 17.6734C126.022 17.7409 125.936 17.791 125.842 17.8199C125.434 18.0341 124.978 18.1395 124.517 18.1257C123.726 18.1257 123.133 17.892 122.737 17.4236C122.311 16.9852 122.082 16.3122 122.053 15.4043H129.953C129.99 15.3065 130.005 15.2018 129.998 15.0974V14.6289C129.999 12.698 129.513 11.1903 128.54 10.1069L128.535 10.1048V10.1037ZM122.056 13.4422C122.085 12.6819 122.313 12.0949 122.74 11.6825C122.956 11.4779 123.213 11.3174 123.497 11.2119C123.779 11.1063 124.081 11.0568 124.384 11.0676C125.115 11.0676 125.678 11.2722 126.073 11.6814C126.438 12.0626 126.651 12.6496 126.712 13.4422H122.056Z" fill="#22221F"/>
</g>
<defs>
<clipPath id="clip0">
<rect width="130" height="28" fill="white"/>
</clipPath>
</defs>
</svg>
