<svg width="32" height="18" viewBox="0 0 32 18" fill="none" xmlns="http://www.w3.org/2000/svg">
<path d="M5.18453 6.74985H2.18452C1.7867 6.74985 1.40517 6.90788 1.12386 7.18919C0.84256 7.47049 0.684525 7.85202 0.684525 8.24985C0.684525 8.64767 0.84256 9.0292 1.12386 9.3105C1.40517 9.59181 1.7867 9.74985 2.18452 9.74985H5.18453C5.58235 9.74985 5.96388 9.59181 6.24518 9.3105C6.52649 9.0292 6.68453 8.64767 6.68453 8.24985C6.68453 7.85202 6.52649 7.47049 6.24518 7.18919C5.96388 6.90788 5.58235 6.74985 5.18453 6.74985ZM30.3545 2.48984V2.39984C29.9248 1.87453 29.3817 1.45323 28.7661 1.16749C28.1505 0.881754 27.4782 0.738975 26.7995 0.749845H14.9045C13.8023 0.739945 12.7348 1.13492 11.9045 1.85984C11.129 2.54314 10.6192 3.4779 10.4645 4.49985L9.14452 11.9998C9.03102 12.6475 9.06083 13.3122 9.23187 13.9472C9.40291 14.5821 9.71103 15.1718 10.1345 15.6748C10.5558 16.1762 11.0815 16.5796 11.6747 16.8568C12.268 17.134 12.9147 17.2784 13.5695 17.2798H25.4795C26.5494 17.296 27.59 16.9304 28.4147 16.2487C29.2394 15.567 29.7942 14.6137 29.9795 13.5598L31.2995 6.05984C31.4035 5.4318 31.373 4.78884 31.2101 4.17344C31.0472 3.55804 30.7556 2.98421 30.3545 2.48984ZM26.2445 3.74985L21.1445 7.88985C20.843 8.13287 20.4591 8.24985 20.0733 8.2163C19.6875 8.18275 19.3296 8.00127 19.0745 7.70985L15.5795 3.74985H26.2445ZM26.9645 13.0048C26.9038 13.357 26.7193 13.676 26.4443 13.9042C26.1693 14.1325 25.8219 14.255 25.4645 14.2498H13.5695C13.3517 14.248 13.1369 14.1988 12.94 14.1055C12.7431 14.0123 12.5689 13.8772 12.4295 13.7098C12.2898 13.5433 12.1879 13.3484 12.1309 13.1386C12.0739 12.9289 12.0632 12.7092 12.0995 12.4948L13.2995 5.69985L16.8245 9.68985C17.5918 10.5619 18.6665 11.1035 19.8239 11.2013C20.9813 11.2992 22.1318 10.9457 23.0345 10.2148L28.1945 5.99985L26.9645 13.0048ZM6.68453 0.749845H2.18452C1.7867 0.749845 1.40517 0.90788 1.12386 1.18918C0.84256 1.47049 0.684525 1.85202 0.684525 2.24984C0.684525 2.64767 0.84256 3.0292 1.12386 3.3105C1.40517 3.59181 1.7867 3.74985 2.18452 3.74985H6.68453C7.08235 3.74985 7.46388 3.59181 7.74518 3.3105C8.02649 3.0292 8.18453 2.64767 8.18453 2.24984C8.18453 1.85202 8.02649 1.47049 7.74518 1.18918C7.46388 0.90788 7.08235 0.749845 6.68453 0.749845Z" fill="white"/>
</svg>
